<svg id="Layer_1" data-name="Layer 1" xmlns="http://www.w3.org/2000/svg" viewBox="0 0 338 100"><defs><style>.cls-1{fill:#2aace2;}.cls-2{fill:none;}.cls-3{fill:#231f20;}</style></defs><title>Artboard 4</title><polygon class="cls-1" points="83.97 67.44 91.61 67.44 91.61 69.44 86.47 69.44 86.47 71.11 91.17 71.11 91.17 73.05 86.47 73.05 86.47 74.88 91.75 74.88 91.75 77.03 83.97 77.03 83.97 67.44 83.97 67.44"/><rect class="cls-2" x="84" y="22.77" width="170.03" height="54.46"/><path class="cls-1" d="M93.08,70.05h2.21v1h0a2.65,2.65,0,0,1,2.19-1.16c2.32,0,2.51,1.7,2.51,2.7V77H97.74V73.65c0-1,.1-1.92-1.14-1.92-.86,0-1.24.73-1.24,1.49V77H93.08v-7Z"/><polygon class="cls-1" points="105.69 77.03 103.06 77.03 100.73 70.05 103.11 70.05 104.39 74.66 104.41 74.66 105.7 70.05 108.03 70.05 105.69 77.03 105.69 77.03"/><path class="cls-1" d="M108.83,70.05h2.29v7h-2.29v-7Zm2.29-.87h-2.29V67.43h2.29v1.75Z"/><path class="cls-1" d="M112.81,70.05H115v1.23h0a2.11,2.11,0,0,1,2.1-1.36,2.38,2.38,0,0,1,.53,0v2.09a3.17,3.17,0,0,0-.87-.14,1.6,1.6,0,0,0-1.72,1.65V77h-2.28v-7Z"/><path class="cls-1" d="M121.54,75.48c1.06,0,1.4-1,1.4-1.93s-.34-2-1.4-2-1.38,1.06-1.38,2,.32,1.93,1.38,1.93Zm0-5.63a3.69,3.69,0,1,1-3.67,3.7,3.57,3.57,0,0,1,3.67-3.7Z"/><path class="cls-1" d="M126.42,70.05h2.21v1h0a2.65,2.65,0,0,1,2.19-1.16c2.33,0,2.51,1.7,2.51,2.7V77h-2.28V73.65c0-1,.11-1.92-1.14-1.92-.86,0-1.24.73-1.24,1.49V77h-2.28v-7Z"/><path class="cls-1" d="M134.88,70.05h2.22v1h0a2.34,2.34,0,0,1,2-1.16,2,2,0,0,1,2,1.13,2.56,2.56,0,0,1,2.18-1.13c2.22,0,2.46,1.68,2.46,3V77h-2.28v-4.1c0-.75-.37-1.2-1-1.2-1,0-1.07.76-1.07,1.88V77h-2.29v-4c0-.82-.24-1.33-.86-1.33-.82,0-1.17.47-1.17,1.9V77h-2.28v-7Z"/><path class="cls-1" d="M152.1,72.82a1.41,1.41,0,0,0-1.35-1.42,1.5,1.5,0,0,0-1.48,1.42Zm-2.83,1.28a1.49,1.49,0,0,0,1.56,1.58,1.36,1.36,0,0,0,1.3-.76h2.13a3.29,3.29,0,0,1-3.46,2.31A3.51,3.51,0,0,1,147,73.52a3.66,3.66,0,0,1,3.77-3.67c2.49,0,3.74,1.88,3.64,4.25Z"/><path class="cls-1" d="M155.53,70.05h2.21v1h0A2.65,2.65,0,0,1,160,69.85c2.32,0,2.51,1.7,2.51,2.7V77h-2.28V73.65c0-1,.11-1.92-1.14-1.92-.86,0-1.24.73-1.24,1.49V77h-2.28v-7Z"/><path class="cls-1" d="M168.19,71.53h-1.41V74.7c0,.55.33.67.82.67l.59,0V77c-.41,0-.83.06-1.25.06-1.94,0-2.44-.56-2.44-2.45V71.53h-1.16V70.05h1.16V68h2.28v2.1h1.41v1.48Z"/><path class="cls-1" d="M172.08,75.82c1.08,0,1.45-.62,1.39-2.06a6.76,6.76,0,0,1-1.41.38c-.51.12-.94.33-.94.88s.45.8,1,.8Zm-3-3.62a2.13,2.13,0,0,1,1.09-1.86,4.59,4.59,0,0,1,2.22-.49c1.65,0,3.25.37,3.25,2.34v3a4.2,4.2,0,0,0,.26,1.79h-2.29a3,3,0,0,1-.14-.66,3.12,3.12,0,0,1-2.29.86c-1.33,0-2.38-.67-2.38-2.11,0-2.27,2.47-2.1,4.06-2.42.38-.08.6-.21.6-.64s-.63-.73-1.1-.73a1,1,0,0,0-1.14.87Z"/><polygon class="cls-1" points="177.26 67.44 179.54 67.44 179.54 77.03 177.26 77.03 177.26 67.44 177.26 67.44"/><path class="cls-1" d="M188,71.89h1.68c.78,0,1.34-.32,1.34-1.19a1.17,1.17,0,0,0-1.34-1.26H188v2.45Zm-2.5-4.46H190c1.78,0,3.46.82,3.46,3.09s-1.36,3.31-3.46,3.31H188V77h-2.5v-9.6Z"/><path class="cls-1" d="M194.67,70.05h2.22v1.23h0a2.11,2.11,0,0,1,2.1-1.36,2.53,2.53,0,0,1,.54,0v2.09a3.3,3.3,0,0,0-.88-.14A1.6,1.6,0,0,0,197,73.57V77h-2.28v-7Z"/><path class="cls-1" d="M203.4,75.48c1.06,0,1.4-1,1.4-1.93s-.34-2-1.4-2-1.38,1.06-1.38,2,.32,1.93,1.38,1.93Zm0-5.63a3.69,3.69,0,1,1-3.66,3.7,3.57,3.57,0,0,1,3.66-3.7Z"/><path class="cls-1" d="M212.48,71.53h-1.41V74.7c0,.55.33.67.82.67l.59,0V77c-.41,0-.83.06-1.25.06-1.94,0-2.44-.56-2.44-2.45V71.53h-1.16V70.05h1.16V68h2.28v2.1h1.41v1.48Z"/><path class="cls-1" d="M218.29,72.82a1.41,1.41,0,0,0-1.36-1.42,1.51,1.51,0,0,0-1.48,1.42Zm-2.84,1.28A1.49,1.49,0,0,0,217,75.68a1.35,1.35,0,0,0,1.3-.76h2.14A3.31,3.31,0,0,1,217,77.23a3.5,3.5,0,0,1-3.81-3.71,3.65,3.65,0,0,1,3.76-3.67c2.5,0,3.75,1.88,3.64,4.25Z"/><path class="cls-1" d="M226.25,72.61a1.07,1.07,0,0,0-1.11-1c-1.28,0-1.48,1.09-1.48,2.05s.39,1.83,1.36,1.83a1.22,1.22,0,0,0,1.3-1.19h2.22A3.28,3.28,0,0,1,225,77.23a3.47,3.47,0,0,1-3.65-3.58,3.53,3.53,0,0,1,3.65-3.8c1.73,0,3.28.92,3.44,2.76Z"/><path class="cls-1" d="M233.88,71.53h-1.41V74.7c0,.55.32.67.82.67l.59,0V77c-.41,0-.83.06-1.25.06-1.94,0-2.44-.56-2.44-2.45V71.53H229V70.05h1.16V68h2.28v2.1h1.41v1.48Z"/><path class="cls-1" d="M235,70.05h2.29v7H235v-7Zm2.29-.87H235V67.43h2.29v1.75Z"/><path class="cls-1" d="M242.21,75.48c1.06,0,1.4-1,1.4-1.93s-.34-2-1.4-2-1.38,1.06-1.38,2,.32,1.93,1.38,1.93Zm0-5.63a3.69,3.69,0,1,1-3.67,3.7,3.58,3.58,0,0,1,3.67-3.7Z"/><path class="cls-1" d="M247.09,70.05h2.21v1h0a2.65,2.65,0,0,1,2.19-1.16c2.32,0,2.51,1.7,2.51,2.7V77h-2.28V73.65c0-1,.11-1.92-1.14-1.92-.86,0-1.24.73-1.24,1.49V77h-2.28v-7Z"/><path class="cls-3" d="M225.18,24.4h.31c.2,0,.35,0,.35-.24s-.2-.22-.37-.22h-.29v.46Zm-.35-.73h.67c.44,0,.69.14.69.52a.45.45,0,0,1-.47.47l.48.77h-.37l-.43-.75h-.22v.75h-.35V23.67Zm.63,2.12a1.24,1.24,0,1,0-1.19-1.24,1.2,1.2,0,0,0,1.19,1.24Zm0-2.81a1.58,1.58,0,1,1-1.62,1.57A1.57,1.57,0,0,1,225.46,23ZM155.92,46.19,161.74,52v7.26l2.42,2.42h9.68l2.42-2.42V52l12.1-12.1V54.43l7.26,7.26h24.2l7.26-7.26V47.17l-2.42-2.42h-12.1v2.42h-9.68V37.49h9.68v2.39h12.1l2.42-2.39V30.23L219.82,23h-24.2l-7.26,7.26V25.39L185.94,23h-9.68l-2.42,2.42v4.84L169,35.07l-4.84-4.84V25.39L161.74,23h-9.68l-2.42,2.42L147.22,23h-9.68l-2.42,2.42v9.68L123,23h-9.68l-2.42,2.42V59.27l2.42,2.42H123l2.42-2.42V49.59l12.1,12.1h9.68l2.42-2.42V39.91l6.28,6.28"/></svg>